<svg version="1.1" viewBox="0.0 0.0 960.0 540.0" fill="none" stroke="none" stroke-linecap="square" stroke-miterlimit="10" xmlns:xlink="http://www.w3.org/1999/xlink" xmlns="http://www.w3.org/2000/svg"><clipPath id="g12acab01945_0_58.0"><path d="m0 0l960.0 0l0 540.0l-960.0 0l0 -540.0z" clip-rule="nonzero"/></clipPath><g clip-path="url(#g12acab01945_0_58.0)"><path fill="#000000" fill-opacity="0.0" d="m0 0l960.0 0l0 540.0l-960.0 0z" fill-rule="evenodd"/><path fill="#000000" fill-opacity="0.0" d="m274.9265 203.14174l217.73227 0l0 121.19685l-217.73227 0z" fill-rule="evenodd"/><path fill="#f3f3f3" d="m338.31714 264.28174q0 8.8125 -3.125 15.453125q-3.109375 6.640625 -8.921875 10.265625q-5.796875 3.609375 -13.296875 3.609375q-7.4375 0 -13.265625 -3.5625q-5.8125 -3.578125 -9.015625 -10.203125q-3.203125 -6.625 -3.234375 -15.234375l0 -2.953125q0 -8.828125 3.171875 -15.53125q3.1875 -6.703125 8.984375 -10.296875q5.8125 -3.59375 13.265625 -3.59375q7.46875 0 13.265625 3.59375q5.8125 3.59375 8.984375 10.296875q3.1875 6.703125 3.1875 15.484375l0 2.671875zm-12.46875 -2.71875q0 -9.390625 -3.375 -14.265625q-3.359375 -4.890625 -9.59375 -4.890625q-6.1875 0 -9.5625 4.828125q-3.359375 4.8125 -3.390625 14.125l0 2.921875q0 9.140625 3.359375 14.1875q3.359375 5.046875 9.6875 5.046875q6.1875 0 9.5 -4.859375q3.328125 -4.859375 3.375 -14.171875l0 -2.921875zm33.13672 31.21875l-11.890625 0l0 -63.0l11.890625 0l0 63.0zm22.271484 0l-11.890625 0l0 -44.375l11.890625 0l0 44.375zm-12.59375 -55.859375q0 -2.671875 1.78125 -4.390625q1.796875 -1.71875 4.859375 -1.71875q3.046875 0 4.84375 1.71875q1.8125 1.71875 1.8125 4.390625q0 2.703125 -1.828125 4.421875q-1.828125 1.71875 -4.828125 1.71875q-2.984375 0 -4.8125 -1.71875q-1.828125 -1.71875 -1.828125 -4.421875zm33.47461 11.484375l0.359375 4.953125q4.71875 -5.78125 12.765625 -5.78125q8.5625 0 11.765625 6.765625q4.671875 -6.765625 13.328125 -6.765625q7.21875 0 10.75 4.203125q3.53125 4.203125 3.53125 12.65625l0 28.34375l-11.890625 0l0 -28.296875q0 -3.78125 -1.484375 -5.515625q-1.46875 -1.75 -5.203125 -1.75q-5.34375 0 -7.390625 5.09375l0.046875 30.46875l-11.859375 0l0 -28.265625q0 -3.84375 -1.515625 -5.5625q-1.515625 -1.734375 -5.171875 -1.734375q-5.046875 0 -7.296875 4.1875l0 31.375l-11.859375 0l0 -44.375l11.125 0zm74.11133 44.375l-11.890625 0l0 -44.375l11.890625 0l0 44.375zm-12.59375 -55.859375q0 -2.671875 1.78125 -4.390625q1.796875 -1.71875 4.859375 -1.71875q3.046875 0 4.84375 1.71875q1.8125 1.71875 1.8125 4.390625q0 2.703125 -1.828125 4.421875q-1.828125 1.71875 -4.828125 1.71875q-2.984375 0 -4.8125 -1.71875q-1.828125 -1.71875 -1.828125 -4.421875z" fill-rule="nonzero"/><defs><linearGradient id="g12acab01945_0_58.1" gradientUnits="userSpaceOnUse" gradientTransform="matrix(12.8185621181904 0.0 0.0 12.8185621181904 0.0 0.0)" spreadMethod="pad" x1="38.433233627023014" y1="14.653901413130994" x2="38.43318883674339" y2="27.472463531243143"><stop offset="0.0" stop-color="#1077d2"/><stop offset="1.0" stop-color="#093153"/></linearGradient></defs><path fill="url(#g12acab01945_0_58.1)" d="m492.65878 270.0l0 0c0 -45.37433 36.042877 -82.157486 80.50394 -82.157486l0 0c21.350952 0 41.827454 8.655853 56.924866 24.06337c15.097412 15.4075165 23.579102 36.304596 23.579102 58.094116l0 0c0 45.37433 -36.042847 82.15747 -80.50397 82.15747l0 0c-44.46106 0 -80.50394 -36.783142 -80.50394 -82.15747z" fill-rule="evenodd"/><path fill="#000000" fill-opacity="0.0" d="m395.52493 287.96326l97.13385 0l0 42.015747l-97.13385 0z" fill-rule="evenodd"/><path fill="#999999" d="m412.58743 311.39886q0 -0.765625 -0.546875 -1.171875q-0.546875 -0.421875 -1.96875 -0.875q-1.421875 -0.46875 -2.25 -0.921875q-2.265625 -1.21875 -2.265625 -3.28125q0 -1.078125 0.609375 -1.921875q0.609375 -0.84375 1.734375 -1.3125q1.140625 -0.484375 2.5625 -0.484375q1.40625 0 2.515625 0.515625q1.125 0.515625 1.734375 1.453125q0.609375 0.9375 0.609375 2.140625l-2.71875 0q0 -0.90625 -0.578125 -1.40625q-0.578125 -0.515625 -1.609375 -0.515625q-1.015625 0 -1.578125 0.421875q-0.546875 0.421875 -0.546875 1.109375q0 0.65625 0.65625 1.09375q0.65625 0.4375 1.921875 0.8125q2.328125 0.703125 3.390625 1.75q1.0625 1.03125 1.0625 2.578125q0 1.71875 -1.296875 2.703125q-1.296875 0.984375 -3.5 0.984375q-1.53125 0 -2.796875 -0.5625q-1.25 -0.5625 -1.921875 -1.53125q-0.65625 -0.984375 -0.65625 -2.265625l2.75 0q0 2.1875 2.625 2.1875q0.96875 0 1.515625 -0.390625q0.546875 -0.390625 0.546875 -1.109375zm4.000122 -1.53125q0 -1.46875 0.5625 -2.609375q0.578125 -1.15625 1.640625 -1.78125q1.0625 -0.625 2.453125 -0.625q2.0 0 3.265625 1.21875q1.265625 1.21875 1.40625 3.3125l0.015625 0.671875q0 2.265625 -1.265625 3.640625q-1.265625 1.375 -3.40625 1.375q-2.125 0 -3.40625 -1.359375q-1.265625 -1.375 -1.265625 -3.734375l0 -0.109375zm2.640625 0.1875q0 1.40625 0.53125 2.15625q0.53125 0.734375 1.515625 0.734375q0.953125 0 1.484375 -0.734375q0.546875 -0.734375 0.546875 -2.34375q0 -1.375 -0.546875 -2.125q-0.53125 -0.765625 -1.515625 -0.765625q-0.953125 0 -1.484375 0.75q-0.53125 0.75 -0.53125 2.328125zm9.048798 4.828125l0 -7.921875l-1.46875 0l0 -1.9375l1.46875 0l0 -0.828125q0 -1.671875 0.953125 -2.578125q0.953125 -0.921875 2.65625 -0.921875q0.546875 0 1.34375 0.1875l-0.03125 2.046875q-0.328125 -0.09375 -0.796875 -0.09375q-1.484375 0 -1.484375 1.390625l0 0.796875l1.953125 0l0 1.9375l-1.953125 0l0 7.921875l-2.640625 0zm9.108246 -12.28125l0 2.421875l1.6875 0l0 1.9375l-1.6875 0l0 4.921875q0 0.546875 0.203125 0.78125q0.21875 0.234375 0.8125 0.234375q0.4375 0 0.78125 -0.0625l0 2.0q-0.78125 0.234375 -1.59375 0.234375q-2.78125 0 -2.828125 -2.796875l0 -5.3125l-1.4375 0l0 -1.9375l1.4375 0l0 -2.421875l2.625 0zm11.725647 8.703125l1.296875 -6.28125l2.546875 0l-2.515625 9.859375l-2.203125 0l-1.875 -6.203125l-1.859375 6.203125l-2.203125 0l-2.515625 -9.859375l2.546875 0l1.28125 6.265625l1.8125 -6.265625l1.890625 0l1.796875 6.28125zm10.850403 3.578125q-0.171875 -0.359375 -0.265625 -0.890625q-0.953125 1.078125 -2.484375 1.078125q-1.453125 0 -2.40625 -0.84375q-0.9375 -0.84375 -0.9375 -2.109375q0 -1.578125 1.15625 -2.40625q1.15625 -0.84375 3.359375 -0.84375l1.203125 0l0 -0.578125q0 -0.671875 -0.359375 -1.078125q-0.34375 -0.421875 -1.09375 -0.421875q-0.65625 0 -1.046875 0.328125q-0.375 0.3125 -0.375 0.875l-2.625 0q0 -0.859375 0.515625 -1.578125q0.53125 -0.734375 1.5 -1.140625q0.96875 -0.421875 2.171875 -0.421875q1.8125 0 2.875 0.921875q1.078125 0.90625 1.078125 2.5625l0 4.265625q0.015625 1.40625 0.390625 2.125l0 0.15625l-2.65625 0zm-2.171875 -1.828125q0.578125 0 1.0625 -0.25q0.5 -0.265625 0.734375 -0.703125l0 -1.703125l-0.984375 0q-1.96875 0 -2.09375 1.375l-0.015625 0.15625q0 0.484375 0.34375 0.8125q0.34375 0.3125 0.953125 0.3125zm12.002228 -5.5625q-0.53125 -0.0625 -0.9375 -0.0625q-1.5 0 -1.96875 1.0l0 6.453125l-2.625 0l0 -9.859375l2.484375 0l0.078125 1.171875q0.78125 -1.34375 2.1875 -1.34375q0.4375 0 0.828125 0.109375l-0.046875 2.53125zm5.6316223 7.578125q-2.171875 0 -3.53125 -1.328125q-1.359375 -1.34375 -1.359375 -3.546875l0 -0.265625q0 -1.484375 0.5625 -2.640625q0.578125 -1.171875 1.625 -1.796875q1.0625 -0.640625 2.40625 -0.640625q2.03125 0 3.1875 1.28125q1.15625 1.265625 1.15625 3.609375l0 1.0625l-6.265625 0q0.125 0.96875 0.765625 1.5625q0.640625 0.578125 1.625 0.578125q1.515625 0 2.375 -1.109375l1.296875 1.453125q-0.59375 0.84375 -1.609375 1.3125q-1.0 0.46875 -2.234375 0.46875zm-0.296875 -8.09375q-0.78125 0 -1.28125 0.53125q-0.484375 0.53125 -0.609375 1.515625l3.65625 0l0 -0.21875q-0.015625 -0.875 -0.484375 -1.34375q-0.453125 -0.484375 -1.28125 -0.484375z" fill-rule="nonzero"/><path fill="#ffffff" d="m565.45013 218.74016l0 0c14.378296 0 26.935669 14.8654175 30.530212 36.14174l-6.0236206 0l13.048523 12.047241l11.045959 -12.047241l-6.0236206 0l0 0c-3.5945435 -21.276321 -16.151917 -36.14174 -30.530212 -36.14174z" fill-rule="evenodd"/><path fill="#cbcbcb" d="m545.9659 266.92914l0 0c0 -23.064636 10.693909 -42.89534 25.507874 -47.3015c-9.244568 -2.7496338 -18.809448 0.9601135 -26.077332 10.114166c-7.2678833 9.154053 -11.477783 22.79393 -11.477783 37.187332z" fill-rule="evenodd"/><path fill="#000000" fill-opacity="0.0" d="m565.45013 218.74016l0 0c14.378296 0 26.935669 14.8654175 30.530212 36.14174l-6.0236206 0l13.048523 12.047241l11.045959 -12.047241l-6.0236206 0l0 0c-3.5945435 -21.276321 -16.151917 -36.14174 -30.530212 -36.14174l-12.047241 0l0 0c-17.414368 0 -31.531494 21.574936 -31.531494 48.18898l12.047241 0l0 0c0 -23.064636 10.693909 -42.89534 25.507874 -47.3015" fill-rule="evenodd"/><path stroke="#ffffff" stroke-width="3.0" stroke-linejoin="round" stroke-linecap="butt" d="m565.45013 218.74016l0 0c14.378296 0 26.935669 14.8654175 30.530212 36.14174l-6.0236206 0l13.048523 12.047241l11.045959 -12.047241l-6.0236206 0l0 0c-3.5945435 -21.276321 -16.151917 -36.14174 -30.530212 -36.14174l-12.047241 0l0 0c-17.414368 0 -31.531494 21.574936 -31.531494 48.18898l12.047241 0l0 0c0 -23.064636 10.693909 -42.89534 25.507874 -47.3015" fill-rule="evenodd"/><path fill="#ffffff" d="m565.45013 321.26248l0 0c14.378296 0 26.935669 -14.8654175 30.530212 -36.141754l-6.0236206 0l13.048523 -12.047241l11.045959 12.047241l-6.0236206 0l0 0c-3.5945435 21.276337 -16.151917 36.141754 -30.530212 36.141754z" fill-rule="evenodd"/><path fill="#cbcbcb" d="m545.9659 273.0735l0 0c0 23.064636 10.693909 42.895325 25.507874 47.301483c-9.244568 2.7496643 -18.809448 -0.9601135 -26.077332 -10.114136c-7.2678833 -9.154053 -11.477783 -22.793945 -11.477783 -37.187347z" fill-rule="evenodd"/><path fill="#000000" fill-opacity="0.0" d="m565.45013 321.26248l0 0c14.378296 0 26.935669 -14.8654175 30.530212 -36.141754l-6.0236206 0l13.048523 -12.047241l11.045959 12.047241l-6.0236206 0l0 0c-3.5945435 21.276337 -16.151917 36.141754 -30.530212 36.141754l-12.047241 0l0 0c-17.414368 0 -31.531494 -21.574951 -31.531494 -48.188995l12.047241 0l0 0c0 23.064636 10.693909 42.895325 25.507874 47.301483" fill-rule="evenodd"/><path stroke="#ffffff" stroke-width="3.0" stroke-linejoin="round" stroke-linecap="butt" d="m565.45013 321.26248l0 0c14.378296 0 26.935669 -14.8654175 30.530212 -36.141754l-6.0236206 0l13.048523 -12.047241l11.045959 12.047241l-6.0236206 0l0 0c-3.5945435 21.276337 -16.151917 36.141754 -30.530212 36.141754l-12.047241 0l0 0c-17.414368 0 -31.531494 -21.574951 -31.531494 -48.188995l12.047241 0l0 0c0 23.064636 10.693909 42.895325 25.507874 47.301483" fill-rule="evenodd"/></g></svg>