<svg version="1.1" viewBox="0.0 0.0 960.0 540.0" fill="none" stroke="none" stroke-linecap="square" stroke-miterlimit="10" xmlns:xlink="http://www.w3.org/1999/xlink" xmlns="http://www.w3.org/2000/svg"><clipPath id="g14a8ba1195c_1_0.0"><path d="m0 0l960.0 0l0 540.0l-960.0 0l0 -540.0z" clip-rule="nonzero"/></clipPath><g clip-path="url(#g14a8ba1195c_1_0.0)"><path fill="#000000" fill-opacity="0.0" d="m0 0l960.0 0l0 540.0l-960.0 0z" fill-rule="evenodd"/><g filter="url(#shadowFilter-g14a8ba1195c_1_0.1)"><use xlink:href="#g14a8ba1195c_1_0.1" transform="matrix(1.0 0.0 0.0 1.0 0.0 2.0)"/></g><defs><filter id="shadowFilter-g14a8ba1195c_1_0.1" filterUnits="userSpaceOnUse"><feGaussianBlur in="SourceAlpha" stdDeviation="2.0" result="blur"/><feComponentTransfer in="blur" color-interpolation-filters="sRGB"><feFuncR type="linear" slope="0" intercept="0.0"/><feFuncG type="linear" slope="0" intercept="0.0"/><feFuncB type="linear" slope="0" intercept="0.0"/><feFuncA type="linear" slope="0.5" intercept="0"/></feComponentTransfer></filter></defs><g id="g14a8ba1195c_1_0.1"><path fill="#000000" fill-opacity="0.0" d="m371.03412 212.89896l217.7323 0l0 121.19684l-217.7323 0z" fill-rule="evenodd"/><path fill="#ffffff" d="m434.42474 274.03894q0 8.8125 -3.125 15.453125q-3.109375 6.640625 -8.921875 10.265625q-5.796875 3.609375 -13.296875 3.609375q-7.4375 0 -13.265625 -3.5625q-5.8125 -3.578125 -9.015625 -10.203125q-3.203125 -6.625 -3.234375 -15.234375l0 -2.953125q0 -8.828125 3.171875 -15.531235q3.1875 -6.703125 8.984375 -10.296875q5.8125 -3.59375 13.265625 -3.59375q7.46875 0 13.265625 3.59375q5.8125 3.59375 8.984375 10.296875q3.1875 6.7031097 3.1875 15.48436l0 2.671875zm-12.46875 -2.71875q0 -9.390625 -3.375 -14.265625q-3.359375 -4.8906097 -9.59375 -4.8906097q-6.1875 0 -9.5625 4.8281097q-3.359375 4.8125 -3.390625 14.125l0 2.921875q0 9.140625 3.359375 14.1875q3.359375 5.046875 9.6875 5.046875q6.1875 0 9.5 -4.859375q3.328125 -4.859375 3.375 -14.171875l0 -2.921875zm33.13672 31.21875l-11.890625 0l0 -62.999985l11.890625 0l0 62.999985zm41.79883 -44.375l0.359375 4.953125q4.71875 -5.78125 12.765625 -5.78125q8.5625 0 11.765625 6.765625q4.671875 -6.765625 13.328125 -6.765625q7.21875 0 10.75 4.203125q3.53125 4.203125 3.53125 12.65625l0 28.34375l-11.890625 0l0 -28.296875q0 -3.78125 -1.484375 -5.515625q-1.46875 -1.75 -5.203125 -1.75q-5.34375 0 -7.390625 5.09375l0.046875 30.46875l-11.859375 0l0 -28.265625q0 -3.84375 -1.515625 -5.5625q-1.515625 -1.734375 -5.171875 -1.734375q-5.046875 0 -7.296875 4.1875l0 31.375l-11.859375 0l0 -44.375l11.125 0z" fill-rule="nonzero"/></g><g filter="url(#shadowFilter-g14a8ba1195c_1_0.2)"><use xlink:href="#g14a8ba1195c_1_0.2" transform="matrix(1.0 0.0 0.0 1.0 0.0 2.0)"/></g><defs><filter id="shadowFilter-g14a8ba1195c_1_0.2" filterUnits="userSpaceOnUse"><feGaussianBlur in="SourceAlpha" stdDeviation="2.0" result="blur"/><feComponentTransfer in="blur" color-interpolation-filters="sRGB"><feFuncR type="linear" slope="0" intercept="0.0"/><feFuncG type="linear" slope="0" intercept="0.0"/><feFuncB type="linear" slope="0" intercept="0.0"/><feFuncA type="linear" slope="0.5" intercept="0"/></feComponentTransfer></filter></defs><g id="g14a8ba1195c_1_0.2"><path fill="#000000" fill-opacity="0.0" d="m485.56168 298.16928l103.40158 0l0 42.015747l-103.40158 0z" fill-rule="evenodd"/><path fill="#d9d9d9" d="m505.85855 320.88617q-0.25 2.09375 -1.5625 3.25q-1.296875 1.140625 -3.46875 1.140625q-2.34375 0 -3.765625 -1.6875q-1.421875 -1.6875 -1.421875 -4.515625l0 -1.265625q0 -1.859375 0.65625 -3.25q0.671875 -1.40625 1.875 -2.15625q1.21875 -0.765625 2.8125 -0.765625q2.109375 0 3.390625 1.1875q1.28125 1.171875 1.484375 3.265625l-1.765625 0q-0.21875 -1.578125 -0.984375 -2.28125q-0.765625 -0.71875 -2.125 -0.71875q-1.671875 0 -2.625 1.234375q-0.953125 1.234375 -0.953125 3.53125l0 1.28125q0 2.15625 0.890625 3.4375q0.90625 1.265625 2.53125 1.265625q1.453125 0 2.234375 -0.65625q0.78125 -0.65625 1.03125 -2.296875l1.765625 0zm1.6742249 -0.8125q0 -1.453125 0.5625 -2.609375q0.578125 -1.15625 1.59375 -1.78125q1.015625 -0.625 2.3125 -0.625q2.015625 0 3.25 1.390625q1.25 1.390625 1.25 3.703125l0 0.125q0 1.4375 -0.546875 2.578125q-0.546875 1.140625 -1.578125 1.78125q-1.015625 0.640625 -2.359375 0.640625q-2.0 0 -3.25 -1.390625q-1.234375 -1.40625 -1.234375 -3.703125l0 -0.109375zm1.6875 0.203125q0 1.640625 0.765625 2.640625q0.765625 0.984375 2.03125 0.984375q1.296875 0 2.046875 -1.0q0.75 -1.015625 0.75 -2.828125q0 -1.625 -0.765625 -2.625q-0.765625 -1.015625 -2.046875 -1.015625q-1.25 0 -2.015625 1.0q-0.765625 0.984375 -0.765625 2.84375zm10.983643 -5.046875l0.046875 1.09375q1.078125 -1.265625 2.921875 -1.265625q2.0625 0 2.8125 1.578125q0.5 -0.71875 1.28125 -1.140625q0.796875 -0.4375 1.859375 -0.4375q3.25 0 3.296875 3.421875l0 6.609375l-1.671875 0l0 -6.5q0 -1.0625 -0.484375 -1.578125q-0.484375 -0.53125 -1.625 -0.53125q-0.9375 0 -1.5625 0.5625q-0.609375 0.5625 -0.71875 1.5l0 6.546875l-1.6875 0l0 -6.453125q0 -2.15625 -2.109375 -2.15625q-1.65625 0 -2.265625 1.40625l0 7.203125l-1.6875 0l0 -9.859375l1.59375 0zm23.085938 5.046875q0 2.25 -1.03125 3.625q-1.015625 1.375 -2.78125 1.375q-1.796875 0 -2.828125 -1.140625l0 4.75l-1.671875 0l0 -13.65625l1.53125 0l0.078125 1.09375q1.03125 -1.265625 2.859375 -1.265625q1.78125 0 2.8125 1.34375q1.03125 1.328125 1.03125 3.71875l0 0.15625zm-1.671875 -0.203125q0 -1.65625 -0.71875 -2.625q-0.703125 -0.96875 -1.953125 -0.96875q-1.53125 0 -2.296875 1.359375l0 4.703125q0.765625 1.359375 2.328125 1.359375q1.203125 0 1.921875 -0.953125q0.71875 -0.96875 0.71875 -2.875zm9.904297 5.015625q-0.140625 -0.296875 -0.234375 -1.03125q-1.171875 1.21875 -2.8125 1.21875q-1.453125 0 -2.390625 -0.828125q-0.921875 -0.828125 -0.921875 -2.09375q0 -1.53125 1.15625 -2.375q1.171875 -0.859375 3.296875 -0.859375l1.640625 0l0 -0.78125q0 -0.890625 -0.53125 -1.40625q-0.515625 -0.53125 -1.546875 -0.53125q-0.90625 0 -1.515625 0.46875q-0.609375 0.453125 -0.609375 1.09375l-1.703125 0q0 -0.734375 0.515625 -1.421875q0.53125 -0.6875 1.421875 -1.078125q0.90625 -0.40625 1.984375 -0.40625q1.703125 0 2.671875 0.859375q0.96875 0.84375 1.0 2.328125l0 4.53125q0 1.359375 0.34375 2.171875l0 0.140625l-1.765625 0zm-2.796875 -1.28125q0.796875 0 1.5 -0.40625q0.71875 -0.421875 1.03125 -1.078125l0 -2.015625l-1.3125 0q-3.109375 0 -3.109375 1.8125q0 0.796875 0.53125 1.25q0.53125 0.4375 1.359375 0.4375zm8.460449 -8.578125l0.046875 1.234375q1.125 -1.40625 2.953125 -1.40625q3.125 0 3.15625 3.515625l0 6.515625l-1.6875 0l0 -6.515625q-0.015625 -1.078125 -0.5 -1.578125q-0.46875 -0.515625 -1.484375 -0.515625q-0.8125 0 -1.4375 0.4375q-0.609375 0.4375 -0.96875 1.15625l0 7.015625l-1.671875 0l0 -9.859375l1.59375 0zm11.918762 7.390625l2.296875 -7.390625l1.796875 0l-3.953125 11.375q-0.921875 2.46875 -2.921875 2.46875l-0.328125 -0.03125l-0.625 -0.125l0 -1.359375l0.453125 0.03125q0.859375 0 1.328125 -0.34375q0.484375 -0.34375 0.796875 -1.265625l0.375 -1.0l-3.515625 -9.75l1.84375 0l2.453125 7.390625z" fill-rule="nonzero"/></g><g filter="url(#shadowFilter-g14a8ba1195c_1_0.3)"><use xlink:href="#g14a8ba1195c_1_0.3" transform="matrix(1.0 0.0 0.0 1.0 0.0 2.0)"/></g><defs><filter id="shadowFilter-g14a8ba1195c_1_0.3" filterUnits="userSpaceOnUse"><feGaussianBlur in="SourceAlpha" stdDeviation="2.0" result="blur"/><feComponentTransfer in="blur" color-interpolation-filters="sRGB"><feFuncR type="linear" slope="0" intercept="0.0"/><feFuncG type="linear" slope="0" intercept="0.0"/><feFuncB type="linear" slope="0" intercept="0.0"/><feFuncA type="linear" slope="1.0" intercept="0"/></feComponentTransfer></filter></defs><g id="g14a8ba1195c_1_0.3"><defs><radialGradient id="g14a8ba1195c_1_0.4" gradientUnits="userSpaceOnUse" gradientTransform="matrix(7.488502095338544 0.0 0.0 7.488502095338544 0.0 0.0)" spreadMethod="pad" cx="69.25710384465721" cy="28.989486735470408" fx="69.25710384465721" fy="28.989486735470408" r="7.488502025604248"><stop offset="0.0" stop-color="#1077d2"/><stop offset="1.0" stop-color="#093153"/></radialGradient></defs><path fill="url(#g14a8ba1195c_1_0.4)" d="m465.28076 230.78523l0 0c9.263123 -19.007767 30.466461 -31.21666 53.77997 -30.966522c23.313477 0.25013733 44.178772 12.910385 52.922424 32.111343l-6.7633667 2.4306793l0 0c-7.7339478 -16.385422 -25.931213 -27.1595 -46.237915 -27.376205c-20.306702 -0.21669006 -38.800446 10.165878 -46.991302 26.381363z" fill-rule="evenodd"/></g><g filter="url(#shadowFilter-g14a8ba1195c_1_0.5)"><use xlink:href="#g14a8ba1195c_1_0.5" transform="matrix(1.0 0.0 0.0 1.0 0.0 2.0)"/></g><defs><filter id="shadowFilter-g14a8ba1195c_1_0.5" filterUnits="userSpaceOnUse"><feGaussianBlur in="SourceAlpha" stdDeviation="2.0" result="blur"/><feComponentTransfer in="blur" color-interpolation-filters="sRGB"><feFuncR type="linear" slope="0" intercept="0.0"/><feFuncG type="linear" slope="0" intercept="0.0"/><feFuncB type="linear" slope="0" intercept="0.0"/><feFuncA type="linear" slope="0.5" intercept="0"/></feComponentTransfer></filter></defs><g id="g14a8ba1195c_1_0.5"><path fill="#000000" fill-opacity="0.0" d="m470.90027 257.48557l0.25195312 45.102356" fill-rule="evenodd"/><path stroke="#ffffff" stroke-width="12.0" stroke-linejoin="round" stroke-linecap="butt" d="m470.90027 257.48557l0.25195312 45.102356" fill-rule="evenodd"/></g><g filter="url(#shadowFilter-g14a8ba1195c_1_0.6)"><use xlink:href="#g14a8ba1195c_1_0.6" transform="matrix(1.0 0.0 0.0 1.0 0.0 2.0)"/></g><defs><filter id="shadowFilter-g14a8ba1195c_1_0.6" filterUnits="userSpaceOnUse"><feGaussianBlur in="SourceAlpha" stdDeviation="2.0" result="blur"/><feComponentTransfer in="blur" color-interpolation-filters="sRGB"><feFuncR type="linear" slope="0" intercept="0.0"/><feFuncG type="linear" slope="0" intercept="0.0"/><feFuncB type="linear" slope="0" intercept="0.0"/><feFuncA type="linear" slope="1.0" intercept="0"/></feComponentTransfer></filter></defs><g id="g14a8ba1195c_1_0.6"><defs><radialGradient id="g14a8ba1195c_1_0.7" gradientUnits="userSpaceOnUse" gradientTransform="matrix(3.237108076626751 0.0 0.0 3.237108076626751 0.0 0.0)" spreadMethod="pad" cx="145.50834744139777" cy="76.21997091974634" fx="145.50834744139777" fy="76.21997091974634" r="3.237107992172241"><stop offset="0.0" stop-color="#1077d2"/><stop offset="1.0" stop-color="#093153"/></radialGradient></defs><path fill="url(#g14a8ba1195c_1_0.7)" d="m463.97113 246.73228l0 0c0 -4.279114 3.1586914 -7.7480316 7.0551147 -7.7480316l0 0c1.8711243 0 3.665619 0.8163147 4.9887085 2.2693481c1.3231201 1.4530334 2.0664062 3.4237823 2.0664062 5.4786835l0 0c0 4.279114 -3.1586914 7.7480316 -7.0551147 7.7480316l0 0c-3.8964233 0 -7.0551147 -3.4689178 -7.0551147 -7.7480316z" fill-rule="evenodd"/></g><g filter="url(#shadowFilter-g14a8ba1195c_1_0.8)"><use xlink:href="#g14a8ba1195c_1_0.8" transform="matrix(1.0 0.0 0.0 1.0 0.0 2.0)"/></g><defs><filter id="shadowFilter-g14a8ba1195c_1_0.8" filterUnits="userSpaceOnUse"><feGaussianBlur in="SourceAlpha" stdDeviation="2.0" result="blur"/><feComponentTransfer in="blur" color-interpolation-filters="sRGB"><feFuncR type="linear" slope="0" intercept="0.0"/><feFuncG type="linear" slope="0" intercept="0.0"/><feFuncB type="linear" slope="0" intercept="0.0"/><feFuncA type="linear" slope="0.5" intercept="0"/></feComponentTransfer></filter></defs><g id="g14a8ba1195c_1_0.8"><path fill="#000000" fill-opacity="0.0" d="m565.979 257.73752l0.09448242 44.59845" fill-rule="evenodd"/><path stroke="#ffffff" stroke-width="12.0" stroke-linejoin="round" stroke-linecap="butt" d="m565.979 257.73752l0.09448242 44.59845" fill-rule="evenodd"/></g><g filter="url(#shadowFilter-g14a8ba1195c_1_0.9)"><use xlink:href="#g14a8ba1195c_1_0.9" transform="matrix(1.0 0.0 0.0 1.0 0.0 2.0)"/></g><defs><filter id="shadowFilter-g14a8ba1195c_1_0.9" filterUnits="userSpaceOnUse"><feGaussianBlur in="SourceAlpha" stdDeviation="2.0" result="blur"/><feComponentTransfer in="blur" color-interpolation-filters="sRGB"><feFuncR type="linear" slope="0" intercept="0.0"/><feFuncG type="linear" slope="0" intercept="0.0"/><feFuncB type="linear" slope="0" intercept="0.0"/><feFuncA type="linear" slope="1.0" intercept="0"/></feComponentTransfer></filter></defs><g id="g14a8ba1195c_1_0.9"><defs><radialGradient id="g14a8ba1195c_1_0.10" gradientUnits="userSpaceOnUse" gradientTransform="matrix(3.237108076626751 0.0 0.0 3.237108076626751 0.0 0.0)" spreadMethod="pad" cx="174.8551240751381" cy="76.21997091974634" fx="174.8551240751381" fy="76.21997091974634" r="3.237107992172241"><stop offset="0.0" stop-color="#1077d2"/><stop offset="1.0" stop-color="#093153"/></radialGradient></defs><path fill="url(#g14a8ba1195c_1_0.10)" d="m558.9698 246.73228l0 0c0 -4.279114 3.1586914 -7.7480316 7.055176 -7.7480316l0 0c1.8710938 0 3.6655884 0.8163147 4.9887085 2.2693481c1.3230591 1.4530334 2.0664062 3.4237823 2.0664062 5.4786835l0 0c0 4.279114 -3.1586914 7.7480316 -7.0551147 7.7480316l0 0c-3.8964844 0 -7.055176 -3.4689178 -7.055176 -7.7480316z" fill-rule="evenodd"/></g></g></svg>